HIERARCHY
ROOT Hips
{
	OFFSET 0.000000 71.427986 0.000000
	CHANNELS 6 Xposition Yposition Zposition Xrotation Yrotation Zrotation
	JOINT Pelvis
	{
		OFFSET 0.000000 0.000000 0.000000
		CHANNELS 3 Xrotation Yrotation Zrotation
		JOINT LeftUpLeg
		{
			OFFSET 6.797100 -2.508499 -1.318700
			CHANNELS 3 Xrotation Yrotation Zrotation
			JOINT LeftLeg
			{
				OFFSET 0.069008 -29.241863 0.690200
				CHANNELS 3 Xrotation Yrotation Zrotation
				JOINT LeftFoot
				{
					OFFSET -0.069008 -29.568123 -0.266800
					CHANNELS 3 Xrotation Yrotation Zrotation
					JOINT LeftToeBase
					{
						OFFSET 3.145500 -8.631000 16.059900
						CHANNELS 3 Xrotation Yrotation Zrotation
						End Site
						{
							OFFSET 0.000000 18.501587 0.000000
						}
					}
				}
			}
			JOINT Left_ShortSleeve
			{
				OFFSET 0.265923 -10.480953 1.153800
				CHANNELS 3 Xrotation Yrotation Zrotation
				End Site
				{
					OFFSET 1.725763 19.823879 0.000000
				}
			}
		}
		JOINT RightUpLeg
		{
			OFFSET -6.797100 -2.508499 -1.318700
			CHANNELS 3 Xrotation Yrotation Zrotation
			JOINT RightLeg
			{
				OFFSET -0.082453 -29.241932 0.688000
				CHANNELS 3 Xrotation Yrotation Zrotation
				JOINT RightFoot
				{
					OFFSET 0.082453 -29.568058 -0.264600
					CHANNELS 3 Xrotation Yrotation Zrotation
					JOINT RightToeBase
					{
						OFFSET -3.115300 -8.682800 16.113400
						CHANNELS 3 Xrotation Yrotation Zrotation
						End Site
						{
							OFFSET 0.000000 18.567114 0.000000
						}
					}
				}
			}
			JOINT Right_ShortSleeve
			{
				OFFSET -0.265923 -10.480953 1.153800
				CHANNELS 3 Xrotation Yrotation Zrotation
				End Site
				{
					OFFSET -1.725766 19.823910 0.000000
				}
			}
		}
	}
	JOINT Spine
	{
		OFFSET 0.000000 13.368103 0.470500
		CHANNELS 3 Xrotation Yrotation Zrotation
		JOINT Spine1
		{
			OFFSET 0.147000 13.837402 0.538800
			CHANNELS 3 Xrotation Yrotation Zrotation
			JOINT Spine2
			{
				OFFSET 0.168000 16.242897 -1.435500
				CHANNELS 3 Xrotation Yrotation Zrotation
				JOINT Neck
				{
					OFFSET 0.217200 18.631500 -1.679100
					CHANNELS 3 Xrotation Yrotation Zrotation
					JOINT Head
					{
						OFFSET 0.000000 6.599396 1.385900
						CHANNELS 3 Xrotation Yrotation Zrotation
						JOINT Hat
						{
							OFFSET -0.532200 27.220596 -10.096100
							CHANNELS 3 Xrotation Yrotation Zrotation
							End Site
							{
								OFFSET 0.000000 22.029861 0.000000
							}
						}
						JOINT HairD
						{
							OFFSET -10.777400 17.437393 -1.325900
							CHANNELS 3 Xrotation Yrotation Zrotation
							JOINT HairD1
							{
								OFFSET -3.290299 -11.051193 1.062200
								CHANNELS 3 Xrotation Yrotation Zrotation
								End Site
								{
									OFFSET 0.000000 11.579437 0.000000
								}
							}
						}
						JOINT HairB
						{
							OFFSET -10.777400 17.437393 1.467900
							CHANNELS 3 Xrotation Yrotation Zrotation
							JOINT HairB1
							{
								OFFSET -1.561200 -12.956299 3.590200
								CHANNELS 3 Xrotation Yrotation Zrotation
								End Site
								{
									OFFSET 0.000000 13.534866 0.000000
								}
							}
						}
						JOINT HairA
						{
							OFFSET 9.713100 17.437393 1.467900
							CHANNELS 3 Xrotation Yrotation Zrotation
							JOINT HairA1
							{
								OFFSET 1.561200 -12.956299 3.590200
								CHANNELS 3 Xrotation Yrotation Zrotation
								End Site
								{
									OFFSET 0.000000 13.534866 0.000000
								}
							}
						}
						JOINT HairC
						{
							OFFSET 9.713100 17.437393 -1.325900
							CHANNELS 3 Xrotation Yrotation Zrotation
							JOINT HairC1
							{
								OFFSET 3.290300 -11.051193 1.062200
								CHANNELS 3 Xrotation Yrotation Zrotation
								End Site
								{
									OFFSET 0.000000 11.579437 0.000000
								}
							}
						}
					}
				}
				JOINT LeftShoulder
				{
					OFFSET 5.101800 15.108002 -2.763700
					CHANNELS 3 Xrotation Yrotation Zrotation
					JOINT LeftArm
					{
						OFFSET 9.825497 2.506317 -1.597400
						CHANNELS 3 Xrotation Yrotation Zrotation
						JOINT LeftForeArm
						{
							OFFSET 21.966244 0.000000 0.000000
							CHANNELS 3 Xrotation Yrotation Zrotation
							JOINT LeftHand
							{
								OFFSET 33.879036 0.000000 0.000000
								CHANNELS 3 Xrotation Yrotation Zrotation
								JOINT LeftHandThumb1
								{
									OFFSET 6.715286 -2.359680 3.363841
									CHANNELS 3 Xrotation Yrotation Zrotation
									JOINT LeftHandThumb2
									{
										OFFSET 2.507072 -1.447464 1.447461
										CHANNELS 3 Xrotation Yrotation Zrotation
										JOINT LeftHandThumb3
										{
											OFFSET 2.898338 -1.673355 1.673357
											CHANNELS 3 Xrotation Yrotation Zrotation
											End Site
											{
												OFFSET -0.295959 3.727692 -0.131651
											}
										}
									}
								}
								JOINT LeftHandIndex1
								{
									OFFSET 14.190811 -0.254547 3.840278
									CHANNELS 3 Xrotation Yrotation Zrotation
									JOINT LeftHandIndex2
									{
										OFFSET 3.551727 0.000000 -0.000000
										CHANNELS 3 Xrotation Yrotation Zrotation
										JOINT LeftHandIndex3
										{
											OFFSET 2.894196 0.000000 0.000000
											CHANNELS 3 Xrotation Yrotation Zrotation
											End Site
											{
												OFFSET -1.000603 2.690872 0.366626
											}
										}
									}
								}
								JOINT LeftHandMiddle1
								{
									OFFSET 13.776489 0.000000 0.000000
									CHANNELS 3 Xrotation Yrotation Zrotation
									JOINT LeftHandMiddle2
									{
										OFFSET 3.438232 0.000000 0.000000
										CHANNELS 3 Xrotation Yrotation Zrotation
										JOINT LeftHandMiddle3
										{
											OFFSET 3.691551 0.000000 0.000000
											CHANNELS 3 Xrotation Yrotation Zrotation
											End Site
											{
												OFFSET -1.082298 3.499527 0.457670
											}
										}
									}
								}
								JOINT LeftHandRing1
								{
									OFFSET 13.966164 -0.268127 -3.067488
									CHANNELS 3 Xrotation Yrotation Zrotation
									JOINT LeftHandRing2
									{
										OFFSET 3.162567 0.000000 0.000000
										CHANNELS 3 Xrotation Yrotation Zrotation
										JOINT LeftHandRing3
										{
											OFFSET 3.324348 0.000000 0.000000
											CHANNELS 3 Xrotation Yrotation Zrotation
											End Site
											{
												OFFSET -0.861900 3.184998 0.405154
											}
										}
									}
								}
								JOINT LeftHandPinky1
								{
									OFFSET 13.131393 -0.168503 -5.746925
									CHANNELS 3 Xrotation Yrotation Zrotation
									JOINT LeftHandPinky2
									{
										OFFSET 2.849182 0.000000 0.000000
										CHANNELS 3 Xrotation Yrotation Zrotation
										JOINT LeftHandPinky3
										{
											OFFSET 2.805038 0.000000 0.000000
											CHANNELS 3 Xrotation Yrotation Zrotation
											End Site
											{
												OFFSET -0.882500 2.642609 0.325652
											}
										}
									}
								}
							}
							JOINT Left_Sleeve
							{
								OFFSET 6.592125 -0.646545 0.805568
								CHANNELS 3 Xrotation Yrotation Zrotation
								End Site
								{
									OFFSET -0.000179 20.275787 -0.000000
								}
							}
						}
					}
				}
				JOINT RightShoulder
				{
					OFFSET -5.731700 15.108002 -2.763700
					CHANNELS 3 Xrotation Yrotation Zrotation
					JOINT RightArm
					{
						OFFSET -9.825497 2.506317 -1.597400
						CHANNELS 3 Xrotation Yrotation Zrotation
						JOINT RightForeArm
						{
							OFFSET -21.966242 0.000000 0.000000
							CHANNELS 3 Xrotation Yrotation Zrotation
							JOINT RightHand
							{
								OFFSET -33.879032 0.000000 0.000000
								CHANNELS 3 Xrotation Yrotation Zrotation
								JOINT RightHandThumb1
								{
									OFFSET -6.715286 -2.359680 3.363841
									CHANNELS 3 Xrotation Yrotation Zrotation
									JOINT RightHandThumb2
									{
										OFFSET -2.507072 -1.447464 1.447461
										CHANNELS 3 Xrotation Yrotation Zrotation
										JOINT RightHandThumb3
										{
											OFFSET -2.898338 -1.673355 1.673357
											CHANNELS 3 Xrotation Yrotation Zrotation
											End Site
											{
												OFFSET 0.295959 3.727692 -0.131651
											}
										}
									}
								}
								JOINT RightHandIndex1
								{
									OFFSET -14.190811 -0.254547 3.840278
									CHANNELS 3 Xrotation Yrotation Zrotation
									JOINT RightHandIndex2
									{
										OFFSET -3.551727 0.000000 -0.000000
										CHANNELS 3 Xrotation Yrotation Zrotation
										JOINT RightHandIndex3
										{
											OFFSET -2.894196 0.000000 0.000000
											CHANNELS 3 Xrotation Yrotation Zrotation
											End Site
											{
												OFFSET 1.000603 2.690872 0.366626
											}
										}
									}
								}
								JOINT RightHandMiddle1
								{
									OFFSET -13.776489 0.000000 0.000000
									CHANNELS 3 Xrotation Yrotation Zrotation
									JOINT RightHandMiddle2
									{
										OFFSET -3.438232 0.000000 0.000000
										CHANNELS 3 Xrotation Yrotation Zrotation
										JOINT RightHandMiddle3
										{
											OFFSET -3.691551 0.000000 0.000000
											CHANNELS 3 Xrotation Yrotation Zrotation
											End Site
											{
												OFFSET 1.082298 3.499527 0.457670
											}
										}
									}
								}
								JOINT RightHandRing1
								{
									OFFSET -13.966164 -0.268127 -3.067488
									CHANNELS 3 Xrotation Yrotation Zrotation
									JOINT RightHandRing2
									{
										OFFSET -3.162567 0.000000 0.000000
										CHANNELS 3 Xrotation Yrotation Zrotation
										JOINT RightHandRing3
										{
											OFFSET -3.324348 0.000000 0.000000
											CHANNELS 3 Xrotation Yrotation Zrotation
											End Site
											{
												OFFSET 0.861900 3.184998 0.405154
											}
										}
									}
								}
								JOINT RightHandPinky1
								{
									OFFSET -13.131393 -0.168503 -5.746925
									CHANNELS 3 Xrotation Yrotation Zrotation
									JOINT RightHandPinky2
									{
										OFFSET -2.849182 0.000000 0.000000
										CHANNELS 3 Xrotation Yrotation Zrotation
										JOINT RightHandPinky3
										{
											OFFSET -2.805038 0.000000 0.000000
											CHANNELS 3 Xrotation Yrotation Zrotation
											End Site
											{
												OFFSET 0.882500 2.642609 0.325652
											}
										}
									}
								}
							}
							JOINT Right_Sleeve
							{
								OFFSET -6.592125 -0.646545 0.805568
								CHANNELS 3 Xrotation Yrotation Zrotation
								End Site
								{
									OFFSET 0.000179 20.275787 -0.000000
								}
							}
						}
					}
				}
				JOINT Bind_Right_JacketString
				{
					OFFSET -3.534800 11.969597 7.200700
					CHANNELS 3 Xrotation Yrotation Zrotation
					JOINT Bind_Right_JacketString1
					{
						OFFSET -0.319900 -6.102600 2.794100
						CHANNELS 3 Xrotation Yrotation Zrotation
						End Site
						{
							OFFSET 0.000000 6.719452 0.000000
						}
					}
				}
				JOINT Bind_Left_JacketString
				{
					OFFSET 2.904800 11.969597 7.200700
					CHANNELS 3 Xrotation Yrotation Zrotation
					JOINT Bind_Left_JacketString1
					{
						OFFSET 0.364800 -5.904503 3.186800
						CHANNELS 3 Xrotation Yrotation Zrotation
						End Site
						{
							OFFSET 0.000000 6.719513 0.000000
						}
					}
				}
				JOINT HairE
				{
					OFFSET 5.915200 17.612701 -11.592200
					CHANNELS 3 Xrotation Yrotation Zrotation
					JOINT HairE1
					{
						OFFSET 0.289200 -7.171898 -1.284500
						CHANNELS 3 Xrotation Yrotation Zrotation
						End Site
						{
							OFFSET 0.000000 7.291756 0.000000
						}
					}
				}
				JOINT HairF
				{
					OFFSET -0.864800 17.612701 -11.592200
					CHANNELS 3 Xrotation Yrotation Zrotation
					JOINT HairF1
					{
						OFFSET 0.000000 -14.087097 -2.127501
						CHANNELS 3 Xrotation Yrotation Zrotation
						End Site
						{
							OFFSET 0.000000 14.246841 0.000000
						}
					}
				}
				JOINT HairG
				{
					OFFSET -8.087700 17.612701 -11.592200
					CHANNELS 3 Xrotation Yrotation Zrotation
					JOINT HairG1
					{
						OFFSET -0.293600 -6.081398 -0.910100
						CHANNELS 3 Xrotation Yrotation Zrotation
						End Site
						{
							OFFSET 0.000000 6.156120 0.000000
						}
					}
				}
			}
		}
	}
	JOINT Pouch
	{
		OFFSET 0.000000 4.394501 10.847300
		CHANNELS 3 Xrotation Yrotation Zrotation
		End Site
		{
			OFFSET 0.000000 21.880577 0.000000
		}
	}
	JOINT Bag
	{
		OFFSET -13.229000 4.813004 -0.593300
		CHANNELS 3 Xrotation Yrotation Zrotation
		End Site
		{
			OFFSET 0.000000 21.880577 0.000000
		}
	}
	JOINT OccupyGuyFacialAnim_Joint
	{
		OFFSET 1.000000 -70.206398 -1.655000
		CHANNELS 3 Xrotation Yrotation Zrotation
		End Site
		{
			OFFSET 0.000000 21.880577 0.000000
		}
	}
}
MOTION
Frames: 4
Frame Time: 0.033333
-0.889503 68.988075 0.922291 -16.901050 -38.965799 -9.421016 0.000001 0.000002 0.000000 -17.409773 44.707891 25.217335 22.306027 0.474076 -0.633419 -0.019476 1.324717 -2.786510 0.000000 0.000001 -0.000000 0.000002 0.000000 -0.000000 6.446101 4.898788 -5.724212 31.334490 -0.172734 1.093481 -23.292034 -17.525765 4.164859 0.000000 0.000002 0.000000 0.000000 0.000001 -0.000001 7.991616 -0.064509 -0.108299 16.413459 -0.125533 -0.745988 16.413515 -0.192908 -0.721097 0.367415 7.480951 0.837553 -6.982132 21.597270 11.883000 0.000001 0.000000 0.000001 0.000001 0.000000 0.000001 0.000001 0.000000 0.000001 0.000001 0.000000 0.000002 0.000000 -0.000001 0.000002 0.000001 0.000000 0.000002 0.000000 -0.000001 0.000002 0.000001 0.000000 0.000001 0.000001 0.000000 0.000001 -37.571078 -4.822522 1.545821 -41.628418 -7.015785 -61.684381 -0.000048 -64.995889 -0.000055 -119.359632 1.120080 32.550223 4.709203 9.560371 3.111993 19.473182 -1.474923 7.636934 -0.000002 -0.000000 0.000001 -0.212816 3.933742 -36.747128 2.942133 5.078878 -60.144610 0.000002 0.000002 -0.000003 0.405924 5.507065 -52.453162 3.387136 5.308606 -65.057456 0.000002 0.000002 -0.000001 -0.074382 5.736767 -61.061427 4.055039 5.569517 -72.094901 0.000000 0.000001 0.000000 -6.565573 4.545149 -72.425243 3.299629 5.267244 -64.107814 0.000003 -0.000001 0.000003 -0.000000 -0.000001 0.000001 -41.176294 -8.605644 -9.942311 -46.819707 58.242949 100.948700 0.000175 98.442997 -0.000229 -52.463124 -17.216617 -29.273125 8.377131 -4.904149 11.021991 21.620201 -18.183900 -18.379218 0.000000 0.000000 -0.000001 -0.920021 1.683573 12.434982 0.748104 -2.533472 32.898265 0.000001 -0.000000 0.000002 3.413064 -7.186279 51.650242 6.296802 -4.359577 110.634673 0.000001 -0.000000 0.000001 -3.349044 -2.600407 57.010575 5.440878 -4.590905 99.698168 0.000000 -0.000001 0.000001 -3.996423 -3.303967 64.593850 4.058849 -4.618652 82.610516 -0.000001 0.000000 0.000002 0.000002 -0.000000 0.000001 -0.000000 -0.000003 0.000001 0.000001 0.000002 -0.000001 -0.000000 -0.000003 0.000001 -0.000000 -0.000003 0.000001 -0.000000 -0.000003 0.000001 0.000001 0.000002 -0.000001 -0.000000 -0.000003 0.000001 -0.000000 -0.000003 0.000001 -0.000000 -0.000003 0.000001 0.000001 0.000002 -0.000001 0.000001 0.000002 0.000000 0.000001 0.000002 0.000000 0.000001 0.000002 0.000000 
-0.823079 69.003143 0.854042 -16.898002 -39.362711 -9.610754 -0.000000 -0.000000 0.000000 -17.680940 44.888095 25.490599 22.248199 0.565958 -0.639417 0.040435 1.552519 -2.760347 0.000000 0.000000 -0.000000 0.000001 -0.000000 -0.000000 6.221568 5.182106 -5.573403 31.287980 -0.045350 1.012501 -23.111878 -17.537667 4.178015 -0.000000 0.000000 0.000000 -0.000000 -0.000001 -0.000000 8.033486 -0.198406 -0.121848 16.402733 -0.160491 -0.728664 16.402831 -0.228123 -0.702499 0.353188 7.526988 0.789510 -6.948894 21.920664 11.842375 -0.000000 0.000001 -0.000000 -0.000000 0.000001 -0.000000 -0.000000 0.000001 -0.000001 -0.000000 0.000001 -0.000002 -0.000000 0.000000 -0.000000 -0.000000 0.000001 -0.000002 -0.000000 0.000000 -0.000000 -0.000000 0.000001 -0.000000 -0.000000 0.000001 -0.000000 -37.578447 -4.789505 1.503359 -41.507562 -6.970870 -61.432429 -0.000040 -64.856191 -0.000039 -119.599823 0.876420 32.295204 4.709204 9.560363 3.111993 19.136086 -0.018462 6.370506 0.000000 -0.000000 -0.000001 -0.127617 4.040484 -36.631305 2.959637 5.088847 -60.342030 -0.000003 -0.000000 -0.000000 0.430667 5.537041 -52.659768 3.383270 5.306831 -65.015744 0.000003 0.000002 -0.000001 -0.048205 5.751985 -61.072567 4.060971 5.571429 -72.156202 0.000000 0.000002 -0.000001 -6.676301 4.515653 -72.454292 3.314096 5.274192 -64.265311 -0.000000 -0.000001 0.000001 -0.000000 -0.000001 -0.000000 -41.206784 -8.342950 -9.962864 -46.967379 58.116748 100.868917 0.000528 98.029286 -0.000543 -52.508281 -17.278143 -28.777875 7.769745 -3.967114 10.950508 22.522451 -18.387983 -19.873501 -0.000001 -0.000001 0.000001 -0.953672 1.881811 12.345124 0.757339 -2.547691 33.106842 -0.000000 -0.000000 -0.000002 3.417696 -7.180566 51.858560 6.293643 -4.360771 110.593064 -0.000000 -0.000000 -0.000003 -3.373478 -2.586148 57.023299 5.445794 -4.590061 99.759728 -0.000000 -0.000000 0.000002 -3.887514 -3.359337 64.616520 4.070886 -4.620206 82.760118 -0.000001 -0.000000 0.000000 -0.000002 0.000001 -0.000000 0.000003 0.000004 -0.000001 0.000001 -0.000001 0.000001 0.000003 0.000004 -0.000001 0.000003 0.000004 -0.000001 0.000003 0.000004 -0.000001 0.000001 -0.000001 0.000001 0.000003 0.000004 -0.000001 0.000003 0.000004 -0.000001 0.000003 0.000004 -0.000001 0.000001 -0.000001 0.000001 -0.000000 -0.000000 0.000000 -0.000000 -0.000000 0.000000 -0.000000 -0.000000 0.000000 
-0.975443 69.063660 0.594227 -17.055203 -39.345281 -9.711960 -0.000000 0.000002 0.000001 -17.309757 45.245909 25.478709 21.114698 0.651687 -0.683918 0.872511 1.321582 -2.764887 0.000000 -0.000000 -0.000000 -0.000001 -0.000000 -0.000000 6.310679 5.406204 -5.186969 31.151076 -0.359306 0.958950 -22.979038 -17.541256 3.992172 0.000000 0.000002 0.000000 0.000000 -0.000001 -0.000001 8.272592 -0.235037 -0.170443 16.391600 -0.169330 -0.727246 16.391785 -0.236835 -0.700807 0.328495 7.617096 0.664612 -6.995455 22.390502 11.641890 0.000001 0.000000 -0.000003 0.000001 0.000000 -0.000003 0.000001 0.000000 -0.000004 0.000001 0.000000 -0.000003 0.000001 0.000001 -0.000001 0.000001 0.000000 -0.000003 0.000001 0.000001 -0.000001 0.000001 0.000000 -0.000003 0.000001 0.000000 -0.000003 -37.570794 -4.822536 1.545800 -41.592358 -6.849276 -61.574914 -0.000017 -64.199871 0.000001 -119.403741 0.765057 31.842468 4.709205 9.560366 3.111994 17.682296 1.621059 3.882755 -0.000002 0.000001 0.000000 -0.051128 4.129962 -36.412626 2.951456 5.084214 -60.249877 0.000001 -0.000000 -0.000004 0.395921 5.513172 -52.707023 3.375659 5.303289 -64.933318 0.000002 0.000001 -0.000001 -0.068530 5.733901 -60.976500 4.070945 5.574595 -72.258771 0.000004 -0.000001 -0.000001 -6.924018 4.404225 -72.307019 3.310030 5.272235 -64.221161 0.000001 -0.000001 0.000001 0.000000 -0.000001 0.000001 -41.260831 -7.875736 -10.001537 -46.470104 58.020620 100.024439 0.000226 97.411700 -0.000268 -52.825752 -16.902620 -28.096144 8.307941 -2.481739 12.865364 24.042471 -17.830267 -21.526996 0.000000 0.000000 -0.000000 -0.976471 2.079489 12.151234 0.753753 -2.542146 33.025792 0.000002 0.000001 0.000000 3.458768 -7.210489 51.905862 6.287370 -4.363111 110.510562 -0.000001 -0.000001 -0.000001 -3.359893 -2.581751 56.927096 5.453969 -4.588652 99.861956 -0.000002 -0.000002 0.000001 -3.655344 -3.447871 64.452978 4.065928 -4.619572 82.698394 -0.000001 0.000001 0.000001 -0.000000 0.000001 0.000001 -0.000002 -0.000001 -0.000000 -0.000003 -0.000002 -0.000001 -0.000002 -0.000001 0.000000 -0.000002 -0.000001 0.000000 -0.000002 -0.000001 -0.000000 -0.000003 -0.000002 -0.000001 -0.000002 -0.000001 0.000000 -0.000002 -0.000001 0.000000 -0.000002 -0.000001 -0.000000 -0.000003 -0.000002 -0.000001 -0.000000 0.000002 0.000001 -0.000000 0.000002 0.000001 -0.000000 0.000002 0.000001 
-1.286986 69.130798 0.143740 -17.198372 -38.336551 -9.422572 -0.000000 0.000002 0.000000 -16.384876 45.167816 24.622960 19.403861 0.854260 -0.396322 2.279641 0.547456 -2.582809 -0.000000 0.000000 0.000000 -0.000001 0.000001 -0.000000 6.632773 5.164739 -4.801762 31.142053 -1.256968 1.162786 -23.045857 -17.490894 3.596779 0.000000 0.000002 0.000000 0.000001 -0.000001 0.000000 8.777632 -0.392020 -0.105486 16.397845 -0.209307 -0.714656 16.398236 -0.275736 -0.686819 0.331218 7.483296 0.878387 -7.000236 21.850303 11.591670 -0.000001 0.000000 0.000001 -0.000001 0.000000 0.000001 -0.000001 0.000000 0.000001 -0.000001 0.000000 0.000001 -0.000002 -0.000000 0.000003 -0.000001 0.000000 0.000001 -0.000002 -0.000000 0.000003 -0.000001 0.000000 0.000001 -0.000001 0.000000 0.000001 -37.582628 -4.771463 1.480165 -42.156911 -6.869591 -62.264783 0.000071 -62.602816 0.000061 -119.005186 1.045902 31.011890 4.709205 9.560365 3.111994 15.405476 4.055006 0.226935 -0.000000 0.000001 -0.000001 0.037021 4.230047 -36.073559 2.943845 5.079868 -60.163988 -0.000002 0.000000 -0.000004 0.330221 5.453988 -52.542190 3.370866 5.301048 -64.881449 0.000003 0.000001 0.000002 -0.046129 5.734346 -60.808867 4.077764 5.576759 -72.328862 -0.000004 -0.000001 0.000003 -7.211511 4.235593 -71.968194 3.304666 5.269634 -64.162708 0.000000 0.000001 -0.000002 -0.000001 -0.000000 -0.000003 -41.114781 -8.677509 -9.810225 -47.414514 58.141330 100.625175 0.000649 96.250500 -0.000645 -52.729262 -17.080676 -26.813332 11.272229 1.014559 14.682578 24.098299 -17.816361 -21.583225 0.000001 -0.000001 -0.000000 -0.995835 2.324297 11.842196 0.750526 -2.537166 32.952756 -0.000001 0.000000 0.000000 3.500578 -7.250853 51.739117 6.283393 -4.364567 110.458543 0.000001 -0.000000 0.000001 -3.391619 -2.538010 56.763004 5.459604 -4.587678 99.932402 -0.000001 -0.000002 0.000001 -3.394904 -3.525723 64.092555 4.059551 -4.618755 82.619525 0.000001 0.000001 0.000001 0.000001 0.000001 0.000001 0.000003 0.000003 -0.000003 0.000001 -0.000000 -0.000000 0.000003 0.000003 -0.000002 0.000003 0.000003 -0.000002 0.000003 0.000003 -0.000003 0.000001 -0.000000 -0.000000 0.000003 0.000003 -0.000002 0.000003 0.000003 -0.000002 0.000003 0.000003 -0.000003 0.000001 -0.000000 -0.000000 -0.000000 0.000002 0.000000 -0.000000 0.000002 0.000000 -0.000000 0.000002 0.000000 
